<svg fill="currentColor" xmlns="http://www.w3.org/2000/svg" viewBox="0 0 32 32"><path fill-rule="evenodd" d="M31.64,12.72c.67-.64-.16-1.8-1-1.54a11,11,0,0,0-11.81-4.9C16.72,5,13.31,4.76,12.25,7.62A5.37,5.37,0,0,0,9.9,11.07a3.43,3.43,0,0,0-1.5,3.15S4,11.06,2.93,10.59s-1.34.21-.94,1.6c-.91,1.11-.64,4.74.59,5.63a3.83,3.83,0,0,0-1.32,3.06c-.09,0-2,2.58-1,2.93,1.89,1.24,5.28,1.41,8,.08,0,0-.4,2.61,2.54,2.06a4,4,0,0,0,3.31.4,2.64,2.64,0,0,0,3.3-.79c3.08-.22,15.08-3.66,13.8-11C31.86,14.45,32.37,13.2,31.64,12.72Zm-6.75,1A1.73,1.73,0,1,1,26.62,12,1.73,1.73,0,0,1,24.89,13.73Z"/></svg>
