<svg aria-hidden="true" fill="currentColor" xmlns="http://www.w3.org/2000/svg" viewBox="0 0 100 100"><path d="M75.5 77.6C67 73.2 57.8 63.3 55.1 50.7c13.3-4.9 27.5-12.4 24.7-26.5 1.7 8.4-11.5 14.4-25.4 18.8 0-1 0-1.9.2-2.9C56.3 22.5 66.4-7.1 77.3 15c4.3 8.6 9.3-8.5-4.4-13.7-22.3-8.4-27.1 25.4-26.3 44.1-5.6 1.6-10.9 2.9-14.9 4.1l-3.3-6.3c-5.7-11.5-13.7-25.1-26.7-29 10.6 9.7 19.9 23.1 26.2 36.4-.5.2-.9.3-1.3.5C16.1 55.5 5.2 56.4.9 70.5c-4.4 14.1 7.2 24.4 13.5 28.2 8.7 5.3-3.1-8.8 1.7-24.7 1.6-5.3 7.4-10.2 15.5-14.5 2.6 7.4 4.8 17.2 2.5 23.9-2.1 6.4-8.4 10.4-10.9 16.3-.4.9 6.3-.9 6.6-1 3.2-1.7 5.8-4.5 7.7-7.6 3.4-5.3 5-12.3 3.4-18.5-1.3-5.1-3.2-10.2-5.4-15.1.5-.2 1-.5 1.6-.7 2.4-1.1 6.1-2.2 10.2-3.5 0 .3.1.6.2.9 3.1 12.3 30 53.6 51 34.5 7.8-7.1-19.4-9.2-23.1-11.1Z" fill-rule="evenodd"/></svg>
